<svg xmlns="http://www.w3.org/2000/svg" xmlns:xlink="http://www.w3.org/1999/xlink" viewBox="0 0 200.24 55"><defs><style>.cls-1{isolation:isolate;}.cls-2{fill:url(#linear-gradient);}.cls-3{fill:url(#linear-gradient-10);}.cls-4{fill:url(#linear-gradient-11);}.cls-5{fill:#ffc43b;opacity:0.5;mix-blend-mode:screen;}.cls-6{fill:#231c4c;}.cls-7{opacity:0.4;mix-blend-mode:multiply;}.cls-8{fill:url(#Super_Soft_Black_Vignette);}.cls-9{fill:url(#Super_Soft_Black_Vignette-2);}.cls-10{fill:url(#Super_Soft_Black_Vignette-3);}.cls-11{fill:url(#Super_Soft_Black_Vignette-4);}.cls-12{fill:url(#Super_Soft_Black_Vignette-5);}.cls-13{fill:#fff;}</style><linearGradient id="linear-gradient" x1="139.18" y1="45.06" x2="139.18" y2="11.24" gradientUnits="userSpaceOnUse"><stop offset="0.01" stop-color="#ff5024"/><stop offset="1" stop-color="#ffbf20"/></linearGradient><linearGradient id="linear-gradient-10" x1="31.38" y1="-4.86" x2="30.85" y2="72.08" gradientUnits="userSpaceOnUse"><stop offset="0.13" stop-color="#0065af"/><stop offset="1" stop-color="#231c64"/></linearGradient><linearGradient id="linear-gradient-11" x1="66.8" y1="187.56" x2="68.85" y2="253.34" gradientTransform="translate(-70.87 -172.82) rotate(-9.48)" gradientUnits="userSpaceOnUse"><stop offset="0.24" stop-color="#ffbf20"/><stop offset="0.99" stop-color="#ca3b2e"/></linearGradient><radialGradient id="Super_Soft_Black_Vignette" cx="32.83" cy="26.59" r="18.14" gradientUnits="userSpaceOnUse"><stop offset="0.57" stop-color="#0d0506"/><stop offset="0.8" stop-color="#0d0506"/><stop offset="1" stop-color="#0d0506"/></radialGradient><radialGradient id="Super_Soft_Black_Vignette-2" cx="30.89" cy="27.52" r="2.72" xlink:href="#Super_Soft_Black_Vignette"/><radialGradient id="Super_Soft_Black_Vignette-3" cx="11.68" cy="24.83" r="5.02" xlink:href="#Super_Soft_Black_Vignette"/><radialGradient id="Super_Soft_Black_Vignette-4" cx="14.75" cy="29.75" r="4.31" xlink:href="#Super_Soft_Black_Vignette"/><radialGradient id="Super_Soft_Black_Vignette-5" cx="17.79" cy="34.82" r="3.83" xlink:href="#Super_Soft_Black_Vignette"/></defs><title>Asset 6</title><g class="cls-1"><g id="Layer_2" data-name="Layer 2"><g id="OBJECTS"><path class="cls-2" d="M78.35,37.59a.88.88,0,0,1-.23-.62V12.15a.93.93,0,0,1,.23-.66.78.78,0,0,1,.61-.25H89.33c2.69,0,4.71.65,6.08,1.94a6.62,6.62,0,0,1,2,5.05,6.17,6.17,0,0,1-1,3.56,6,6,0,0,1-2.32,2.07A7,7,0,0,1,98,30.17,7.91,7.91,0,0,1,97,34a7.06,7.06,0,0,1-2.87,2.78,9.45,9.45,0,0,1-4.52,1H79A.78.78,0,0,1,78.35,37.59ZM88.76,22.53a5.61,5.61,0,0,0,3.76-1.12,3.93,3.93,0,0,0,1.3-3.14,3.62,3.62,0,0,0-1.28-3,6,6,0,0,0-3.78-1H81.69v8.29Zm.38,12.31A5.35,5.35,0,0,0,93,33.53a4.42,4.42,0,0,0,1.39-3.36A4.4,4.4,0,0,0,93,26.78a5.39,5.39,0,0,0-3.82-1.29H81.69v9.35Z"/><path class="cls-2" d="M102.48,35.88a9.27,9.27,0,0,1-2-6.21V19a.85.85,0,0,1,.25-.62.84.84,0,0,1,.63-.25h1.75A.85.85,0,0,1,104,19V29.48q0,5.77,5,5.78a5,5,0,0,0,3.85-1.54,6,6,0,0,0,1.43-4.24V19a.85.85,0,0,1,.87-.87h1.75a.84.84,0,0,1,.87.87V37a.84.84,0,0,1-.87.87h-1.63a.85.85,0,0,1-.88-.87V35.26a7.23,7.23,0,0,1-2.58,2.22,8.45,8.45,0,0,1-3.76.74A6.92,6.92,0,0,1,102.48,35.88Z"/><path class="cls-2" d="M124.1,44.83a.74.74,0,0,1-.23-.53,4.22,4.22,0,0,1,.19-.68l3-7-7.26-17.14a1.76,1.76,0,0,1-.23-.64,1,1,0,0,1,.27-.57.74.74,0,0,1,.53-.23h1.75a1,1,0,0,1,.91.61l5.85,14,6-14a1,1,0,0,1,.91-.61h1.71a.79.79,0,0,1,.76.76,1.81,1.81,0,0,1-.19.68L127.29,44.45a1.43,1.43,0,0,1-.4.46.9.9,0,0,1-.55.15h-1.67A.78.78,0,0,1,124.1,44.83Z"/><path class="cls-2" d="M139.48,37.62a.75.75,0,0,1-.22-.56V34.71a.82.82,0,0,1,.22-.58.75.75,0,0,1,.56-.23h2.35a.77.77,0,0,1,.56.23.87.87,0,0,1,.22.58v2.35a.79.79,0,0,1-.22.56.76.76,0,0,1-.56.22H140A.75.75,0,0,1,139.48,37.62Z"/><path class="cls-2" d="M147.09,37.5a5.09,5.09,0,0,1-1.9-1.39,2.26,2.26,0,0,1-.62-1.29.5.5,0,0,1,.19-.42.62.62,0,0,1,.4-.15h1.13a.6.6,0,0,1,.26,0,1.38,1.38,0,0,1,.26.25,4.68,4.68,0,0,0,1.39,1.18,4.17,4.17,0,0,0,2.06.44,4.43,4.43,0,0,0,2.34-.54,1.74,1.74,0,0,0,.88-1.57A1.53,1.53,0,0,0,153.1,33a3.29,3.29,0,0,0-1.26-.73,21.54,21.54,0,0,0-2.6-.7,6.72,6.72,0,0,1-3.32-1.48,3.41,3.41,0,0,1-1-2.52,3.53,3.53,0,0,1,.6-1.93,4.22,4.22,0,0,1,1.77-1.51,6.18,6.18,0,0,1,2.79-.58,6.69,6.69,0,0,1,2.9.57,5.06,5.06,0,0,1,1.81,1.32,2.2,2.2,0,0,1,.61,1.27.53.53,0,0,1-.17.4.61.61,0,0,1-.42.17h-1a.57.57,0,0,1-.54-.3c-.31-.34-.56-.61-.77-.8a2.52,2.52,0,0,0-.9-.48,4.53,4.53,0,0,0-1.49-.21,3.18,3.18,0,0,0-2,.56,1.78,1.78,0,0,0-.71,1.47,1.53,1.53,0,0,0,.3,1,2.76,2.76,0,0,0,1.14.73,16.84,16.84,0,0,0,2.48.69,7.62,7.62,0,0,1,3.63,1.54A3.35,3.35,0,0,1,156,34a3.62,3.62,0,0,1-.66,2.11,4.38,4.38,0,0,1-2,1.48,8.12,8.12,0,0,1-3.11.54A7.25,7.25,0,0,1,147.09,37.5Z"/><path class="cls-2" d="M158.72,33.12V25.88h-2.14a.55.55,0,0,1-.59-.59v-.87a.6.6,0,0,1,.16-.44.55.55,0,0,1,.43-.18h2.14V19.29a.6.6,0,0,1,.16-.44.54.54,0,0,1,.43-.18h1.19a.61.61,0,0,1,.62.62V23.8h3.35a.59.59,0,0,1,.44.18.57.57,0,0,1,.18.44v.87a.55.55,0,0,1-.18.43.61.61,0,0,1-.44.16h-3.35v7.05a4,4,0,0,0,.44,2.08,1.69,1.69,0,0,0,1.53.7h1.65a.58.58,0,0,1,.43.17.64.64,0,0,1,.16.45v.89a.64.64,0,0,1-.16.45.58.58,0,0,1-.43.17H162.9Q158.72,37.84,158.72,33.12Z"/><path class="cls-2" d="M167.48,36.44A6.51,6.51,0,0,1,165.76,32l0-1.16,0-1.16a6.5,6.5,0,0,1,1.74-4.46,7,7,0,0,1,9.1,0,6.5,6.5,0,0,1,1.74,4.46,11.56,11.56,0,0,1,.06,1.16,11.41,11.41,0,0,1-.06,1.16,6.55,6.55,0,0,1-1.71,4.46,7.1,7.1,0,0,1-9.15,0ZM174.79,35a4.77,4.77,0,0,0,1.1-3.14c0-.18,0-.52,0-1s0-.84,0-1a4.77,4.77,0,0,0-1.1-3.15,4,4,0,0,0-5.48,0,4.77,4.77,0,0,0-1.09,3.15l0,1,0,1A4.76,4.76,0,0,0,169.31,35a4,4,0,0,0,5.48,0Z"/><path class="cls-2" d="M180.35,37.67a.64.64,0,0,1-.17-.45V24.45a.69.69,0,0,1,.17-.46.58.58,0,0,1,.45-.19h1.13a.6.6,0,0,1,.65.65v1.19a4,4,0,0,1,3.76-1.84h1a.66.66,0,0,1,.46.16.61.61,0,0,1,.16.46v1a.64.64,0,0,1-.16.45.62.62,0,0,1-.46.17h-1.54a3.13,3.13,0,0,0-2.34.87,3.22,3.22,0,0,0-.85,2.34v8a.58.58,0,0,1-.19.45.64.64,0,0,1-.45.17H180.8A.64.64,0,0,1,180.35,37.67Z"/><path class="cls-2" d="M189.6,36.4a7.1,7.1,0,0,1-1.81-4.69l0-.92,0-.89a7,7,0,0,1,1.81-4.64,6.51,6.51,0,0,1,9,.16,7.57,7.57,0,0,1,1.63,5.13V31a.61.61,0,0,1-.62.62h-9.37v.24a5,5,0,0,0,1.08,3A3.23,3.23,0,0,0,194,36.14a3.85,3.85,0,0,0,2.06-.5,4.36,4.36,0,0,0,1.2-1,1.37,1.37,0,0,1,.38-.39,1,1,0,0,1,.46-.07h1.19a.68.68,0,0,1,.42.14.43.43,0,0,1,.17.35,2.39,2.39,0,0,1-.73,1.43,5.79,5.79,0,0,1-2.06,1.44,7.28,7.28,0,0,1-3.07.61A5.84,5.84,0,0,1,189.6,36.4Zm8.18-6.58v-.08a4.58,4.58,0,0,0-1-3.08A3.49,3.49,0,0,0,194,25.47a3.41,3.41,0,0,0-2.75,1.19,4.62,4.62,0,0,0-1,3.08v.08Z"/><path class="cls-3" d="M46.28,46.37C32.5,57.42,14.56,57.92,6.2,47.5S2.25,19.67,16,8.63,47.75-2.92,56.11,7.5,60.06,35.33,46.28,46.37Z"/><path class="cls-4" d="M22.78,50.19C6.21,44.07-3.47,29,1.16,16.42S23-1.31,39.53,4.81,65.78,26.05,61.16,38.58,39.35,56.31,22.78,50.19Z"/><path class="cls-5" d="M39.53,4.81A40.61,40.61,0,0,0,27.06,2.28,40.57,40.57,0,0,0,16,8.63C7.85,15.18,3,24,2.11,32.22c3.43,7.54,10.84,14.34,20.67,18a40.67,40.67,0,0,0,12.47,2.53,40.57,40.57,0,0,0,11-6.35c8.18-6.55,13-15.34,13.92-23.59C56.77,15.24,49.36,8.44,39.53,4.81Z"/><path class="cls-6" d="M45.67,43.56c-3.48,2.79-6.9,5.31-11,6.35-3.54.45-8.28-1-12.47-2.54-8.06-3-15.66-8.6-20.06-15.15h0c3.43,7.54,10.84,14.34,20.67,18,4.19,1.55,8.71,3.13,12.47,2.53,4.13-.82,7.55-3.55,11-6.35,8.18-6.55,13-15.34,13.92-23.59l0-.08C58.36,30.23,52.84,37.81,45.67,43.56Z"/><g class="cls-7"><path class="cls-8" d="M48.62,38.54,40.53,14.87a2,2,0,0,0-2.29-1.11l-2.4.51L35.35,12c-.85-4-4.92-6.14-9.07-5.26s-6.82,4.44-6,8.46l.49,2.31L18.49,18a2,2,0,0,0-1.64,2L19.12,45a1.68,1.68,0,0,0,.76,1.33,2.18,2.18,0,0,0,1.64.3l25.63-5.47h0a1.93,1.93,0,0,0,1.61-2.21A1.38,1.38,0,0,0,48.62,38.54ZM34.27,15.78A1.57,1.57,0,0,1,36.14,17a1.58,1.58,0,1,1-1.87-1.21Zm-10.8-1.45a4.21,4.21,0,0,1,3.47-4.8,4.2,4.2,0,0,1,5.13,3L32.59,15,24,16.8Zm-.72,3.9a1.58,1.58,0,1,1-1.22,1.88A1.58,1.58,0,0,1,22.75,18.23ZM36,37.91c-5.23,2.52-9.68.94-12-3.88-1.88-3.9-1.54-9.39,3.82-12,5-2.4,8.73.56,10.57,4.38a12.51,12.51,0,0,1,.75,2l-9.92,4.79c1.12,1.9,3.53,1.91,5.76.83,1.64-.79,1.81-1.33,3.56-2.51s2.76,1.53,2,2.71A10.56,10.56,0,0,1,36,37.91Z"/><path class="cls-9" d="M29.65,25.42c-2,1-1.95,3.19-1.45,4.54l5.67-2.73C33.3,26.06,31.86,24.35,29.65,25.42Z"/><path class="cls-10" d="M17.85,22.85S4.72,25,4.87,26.25s13.63,0,13.63,0Z"/><path class="cls-11" d="M19.94,27.85S8.82,29.73,9,31s11.58.19,11.58.19Z"/><path class="cls-12" d="M22.3,33s-9.75,1.72-9.6,3,10.18.36,10.18.36Z"/></g><path class="cls-13" d="M49.32,37.37,41.23,13.71a2,2,0,0,0-2.29-1.11l-2.4.51-.49-2.31c-.86-4-4.93-6.14-9.07-5.25S20.16,10,21,14l.49,2.31-2.32.49a2,2,0,0,0-1.64,1.94l2.27,25.08a1.68,1.68,0,0,0,.76,1.33,2.12,2.12,0,0,0,1.64.29L47.85,40h0a1.93,1.93,0,0,0,1.6-2.21A1.53,1.53,0,0,0,49.32,37.37ZM35,14.61a1.58,1.58,0,1,1-1.22,1.88A1.58,1.58,0,0,1,35,14.61Zm-10.8-1.45a4.19,4.19,0,0,1,3.47-4.79,4.19,4.19,0,0,1,5.12,3l.53,2.47L24.7,15.64Zm-.72,3.91a1.58,1.58,0,1,1-1.22,1.87A1.58,1.58,0,0,1,23.45,17.07ZM36.66,36.75c-5.23,2.52-9.68.94-12-3.88-1.88-3.9-1.54-9.39,3.82-12,5-2.4,8.73.56,10.57,4.37a12.53,12.53,0,0,1,.75,2L29.88,32c1.11,1.91,3.52,1.91,5.76.84,1.64-.79,1.8-1.33,3.56-2.51s2.76,1.53,2,2.71A10.6,10.6,0,0,1,36.66,36.75Z"/><path class="cls-13" d="M30.35,24.25c-2,1-2,3.2-1.46,4.55l5.67-2.74C34,24.9,32.56,23.19,30.35,24.25Z"/><path class="cls-13" d="M18.55,21.69s-13.13,2.11-13,3.4,13.62,0,13.62,0Z"/><path class="cls-13" d="M20.63,26.68s-11.11,1.88-11,3.17,11.58.2,11.58.2Z"/><path class="cls-13" d="M23,31.81s-9.74,1.72-9.59,3,10.18.36,10.18.36Z"/></g></g></g></svg>